<mxfile host="65bd71144e">
    <diagram id="rHlRCnLW5vDggoMXFgVJ" name="Page-1">
        <mxGraphModel dx="1489" dy="1342" grid="1" gridSize="10" guides="1" tooltips="1" connect="1" arrows="1" fold="1" page="0" pageScale="1" pageWidth="850" pageHeight="1100" background="#ffffff" math="0" shadow="0">
            <root>
                <mxCell id="0"/>
                <mxCell id="1" parent="0"/>
                <mxCell id="4" style="edgeStyle=none;html=1;exitX=1;exitY=0.5;exitDx=0;exitDy=0;" edge="1" parent="1" source="2" target="5">
                    <mxGeometry relative="1" as="geometry">
                        <mxPoint x="170" y="140" as="targetPoint"/>
                    </mxGeometry>
                </mxCell>
                <mxCell id="2" value="" style="shape=ext;double=1;rounded=1;whiteSpace=wrap;html=1;fillColor=#1ba1e2;fontColor=#ffffff;strokeColor=#006EAF;" vertex="1" parent="1">
                    <mxGeometry y="100" width="120" height="80" as="geometry"/>
                </mxCell>
                <mxCell id="5" value="" style="shape=ext;double=1;rounded=1;whiteSpace=wrap;html=1;fillColor=#1ba1e2;fontColor=#ffffff;strokeColor=#006EAF;" vertex="1" parent="1">
                    <mxGeometry x="180" y="100" width="180" height="80" as="geometry"/>
                </mxCell>
                <mxCell id="6" value="" style="shape=ext;double=1;rounded=1;whiteSpace=wrap;html=1;fillColor=#1ba1e2;fontColor=#ffffff;strokeColor=#006EAF;" vertex="1" parent="1">
                    <mxGeometry x="420" y="100" width="160" height="80" as="geometry"/>
                </mxCell>
                <mxCell id="7" value="" style="shape=ext;double=1;rounded=1;whiteSpace=wrap;html=1;fillColor=#1ba1e2;fontColor=#ffffff;strokeColor=#006EAF;" vertex="1" parent="1">
                    <mxGeometry x="630" y="100" width="150" height="80" as="geometry"/>
                </mxCell>
                <mxCell id="8" value="" style="shape=ext;double=1;rounded=1;whiteSpace=wrap;html=1;fillColor=#1ba1e2;fontColor=#ffffff;strokeColor=#006EAF;" vertex="1" parent="1">
                    <mxGeometry x="820" y="30" width="120" height="80" as="geometry"/>
                </mxCell>
                <mxCell id="10" value="&lt;font color=&quot;#1a1a1a&quot;&gt;Patient&lt;/font&gt;" style="text;strokeColor=none;fillColor=none;html=1;fontSize=24;fontStyle=1;verticalAlign=middle;align=center;" vertex="1" parent="1">
                    <mxGeometry x="10" y="120" width="100" height="40" as="geometry"/>
                </mxCell>
                <mxCell id="11" value="Load Balancer" style="text;strokeColor=none;fillColor=none;html=1;fontSize=24;fontStyle=1;verticalAlign=middle;align=center;fontColor=#1A1A1A;" vertex="1" parent="1">
                    <mxGeometry x="220" y="120" width="100" height="40" as="geometry"/>
                </mxCell>
                <mxCell id="12" value="Web Server" style="text;strokeColor=none;fillColor=none;html=1;fontSize=24;fontStyle=1;verticalAlign=middle;align=center;fontColor=#1A1A1A;" vertex="1" parent="1">
                    <mxGeometry x="460" y="120" width="100" height="40" as="geometry"/>
                </mxCell>
                <mxCell id="13" value="App Server" style="text;strokeColor=none;fillColor=none;html=1;fontSize=24;fontStyle=1;verticalAlign=middle;align=center;fontColor=#1A1A1A;" vertex="1" parent="1">
                    <mxGeometry x="655" y="120" width="100" height="40" as="geometry"/>
                </mxCell>
                <mxCell id="15" value="Cache" style="text;strokeColor=none;fillColor=none;html=1;fontSize=24;fontStyle=1;verticalAlign=middle;align=center;fontColor=#1A1A1A;" vertex="1" parent="1">
                    <mxGeometry x="830" y="50" width="100" height="40" as="geometry"/>
                </mxCell>
                <mxCell id="17" value="" style="html=1;whiteSpace=wrap;shape=isoCube2;backgroundOutline=1;isoAngle=15;fontColor=#ffffff;fillColor=#1ba1e2;strokeColor=#006EAF;" vertex="1" parent="1">
                    <mxGeometry x="835" y="160" width="125" height="100" as="geometry"/>
                </mxCell>
                <mxCell id="18" value="Database" style="text;strokeColor=none;fillColor=none;html=1;fontSize=24;fontStyle=1;verticalAlign=middle;align=center;fontColor=#1A1A1A;" vertex="1" parent="1">
                    <mxGeometry x="847.5" y="180" width="100" height="40" as="geometry"/>
                </mxCell>
                <mxCell id="19" value="" style="edgeStyle=segmentEdgeStyle;endArrow=classic;html=1;curved=0;rounded=0;fontColor=#1A1A1A;exitX=1;exitY=0.5;exitDx=0;exitDy=0;entryX=0;entryY=0.5;entryDx=0;entryDy=0;strokeColor=#000000;strokeWidth=3;" edge="1" parent="1" source="2" target="5">
                    <mxGeometry width="50" height="50" relative="1" as="geometry">
                        <mxPoint x="270" y="220" as="sourcePoint"/>
                        <mxPoint x="320" y="170" as="targetPoint"/>
                    </mxGeometry>
                </mxCell>
                <mxCell id="20" value="" style="edgeStyle=segmentEdgeStyle;endArrow=classic;html=1;curved=0;rounded=0;strokeColor=#000000;strokeWidth=3;fontColor=#1A1A1A;entryX=0;entryY=0.5;entryDx=0;entryDy=0;exitX=1;exitY=0.5;exitDx=0;exitDy=0;" edge="1" parent="1" source="5" target="6">
                    <mxGeometry width="50" height="50" relative="1" as="geometry">
                        <mxPoint x="270" y="220" as="sourcePoint"/>
                        <mxPoint x="320" y="170" as="targetPoint"/>
                    </mxGeometry>
                </mxCell>
                <mxCell id="21" value="" style="edgeStyle=segmentEdgeStyle;endArrow=classic;html=1;curved=0;rounded=0;strokeColor=#000000;strokeWidth=3;fontColor=#1A1A1A;exitX=1.038;exitY=0.608;exitDx=0;exitDy=0;exitPerimeter=0;" edge="1" parent="1" source="6" target="7">
                    <mxGeometry width="50" height="50" relative="1" as="geometry">
                        <mxPoint x="500" y="220" as="sourcePoint"/>
                        <mxPoint x="620" y="140" as="targetPoint"/>
                    </mxGeometry>
                </mxCell>
                <mxCell id="22" value="" style="edgeStyle=segmentEdgeStyle;endArrow=classic;html=1;curved=0;rounded=0;strokeColor=#000000;strokeWidth=3;fontColor=#1A1A1A;exitX=1;exitY=0.5;exitDx=0;exitDy=0;entryX=0.178;entryY=1.008;entryDx=0;entryDy=0;entryPerimeter=0;" edge="1" parent="1" source="7" target="8">
                    <mxGeometry width="50" height="50" relative="1" as="geometry">
                        <mxPoint x="780" y="220" as="sourcePoint"/>
                        <mxPoint x="830" y="170" as="targetPoint"/>
                    </mxGeometry>
                </mxCell>
                <mxCell id="23" value="" style="edgeStyle=segmentEdgeStyle;endArrow=classic;html=1;curved=0;rounded=0;endSize=8;startSize=8;strokeColor=#000000;strokeWidth=3;fontColor=#1A1A1A;exitX=1.004;exitY=0.65;exitDx=0;exitDy=0;exitPerimeter=0;entryX=0.28;entryY=0.1;entryDx=0;entryDy=0;entryPerimeter=0;" edge="1" parent="1" source="7" target="17">
                    <mxGeometry width="50" height="50" relative="1" as="geometry">
                        <mxPoint x="780" y="220" as="sourcePoint"/>
                        <mxPoint x="830" y="170" as="targetPoint"/>
                    </mxGeometry>
                </mxCell>
                <mxCell id="24" value="High Level Design" style="text;strokeColor=none;fillColor=none;html=1;fontSize=32;fontStyle=1;verticalAlign=middle;align=center;fontColor=#1A1A1A;" vertex="1" parent="1">
                    <mxGeometry x="400" y="-80" width="100" height="40" as="geometry"/>
                </mxCell>
                <mxCell id="26" value="" style="shape=ext;double=1;rounded=0;whiteSpace=wrap;html=1;fontSize=32;fontColor=#ffffff;fillColor=#008a00;strokeColor=#005700;" vertex="1" parent="1">
                    <mxGeometry x="590" y="280" width="240" height="80" as="geometry"/>
                </mxCell>
                <mxCell id="28" value="Getting Clinics List" style="text;strokeColor=none;fillColor=none;html=1;fontSize=24;fontStyle=1;verticalAlign=middle;align=center;fontColor=#1A1A1A;" vertex="1" parent="1">
                    <mxGeometry x="660" y="300" width="100" height="40" as="geometry"/>
                </mxCell>
                <mxCell id="30" value="" style="shape=ext;double=1;rounded=0;whiteSpace=wrap;html=1;fontSize=32;fontColor=#ffffff;fillColor=#60a917;strokeColor=#2D7600;" vertex="1" parent="1">
                    <mxGeometry x="310" y="280" width="240" height="80" as="geometry"/>
                </mxCell>
                <mxCell id="31" value="Getting Docters List" style="text;strokeColor=none;fillColor=none;html=1;fontSize=24;fontStyle=1;verticalAlign=middle;align=center;fontColor=#1A1A1A;" vertex="1" parent="1">
                    <mxGeometry x="380" y="300" width="100" height="40" as="geometry"/>
                </mxCell>
                <mxCell id="33" value="" style="shape=ext;double=1;rounded=0;whiteSpace=wrap;html=1;fontSize=32;fontColor=#ffffff;fillColor=#60a917;strokeColor=#2D7600;" vertex="1" parent="1">
                    <mxGeometry x="20" y="280" width="230" height="80" as="geometry"/>
                </mxCell>
                <mxCell id="34" value="Book Appointment" style="text;strokeColor=none;fillColor=none;html=1;fontSize=24;fontStyle=1;verticalAlign=middle;align=center;fontColor=#1A1A1A;" vertex="1" parent="1">
                    <mxGeometry x="85" y="300" width="100" height="40" as="geometry"/>
                </mxCell>
                <mxCell id="35" value="Clinic List Service" style="text;strokeColor=none;fillColor=none;html=1;fontSize=24;fontStyle=1;verticalAlign=middle;align=center;fontColor=#1A1A1A;" vertex="1" parent="1">
                    <mxGeometry x="660" y="370" width="100" height="40" as="geometry"/>
                </mxCell>
                <mxCell id="36" value="Docter List Service" style="text;strokeColor=none;fillColor=none;html=1;fontSize=24;fontStyle=1;verticalAlign=middle;align=center;fontColor=#1A1A1A;" vertex="1" parent="1">
                    <mxGeometry x="380" y="370" width="100" height="40" as="geometry"/>
                </mxCell>
                <mxCell id="37" value="Appointment Booking Service" style="text;strokeColor=none;fillColor=none;html=1;fontSize=24;fontStyle=1;verticalAlign=middle;align=center;fontColor=#1A1A1A;" vertex="1" parent="1">
                    <mxGeometry x="50" y="370" width="100" height="40" as="geometry"/>
                </mxCell>
                <mxCell id="38" value="" style="edgeStyle=segmentEdgeStyle;endArrow=classic;html=1;curved=0;rounded=0;endSize=8;startSize=8;strokeColor=#000000;strokeWidth=3;fontSize=32;fontColor=#1A1A1A;exitX=0;exitY=0.5;exitDx=0;exitDy=0;entryX=1;entryY=0.5;entryDx=0;entryDy=0;" edge="1" parent="1" source="30" target="33">
                    <mxGeometry width="50" height="50" relative="1" as="geometry">
                        <mxPoint x="240" y="340" as="sourcePoint"/>
                        <mxPoint x="290" y="290" as="targetPoint"/>
                    </mxGeometry>
                </mxCell>
                <mxCell id="39" value="" style="edgeStyle=segmentEdgeStyle;endArrow=classic;html=1;curved=0;rounded=0;strokeColor=#000000;strokeWidth=3;fontSize=32;fontColor=#1A1A1A;" edge="1" parent="1">
                    <mxGeometry width="50" height="50" relative="1" as="geometry">
                        <mxPoint x="580" y="330" as="sourcePoint"/>
                        <mxPoint x="550" y="330" as="targetPoint"/>
                    </mxGeometry>
                </mxCell>
                <mxCell id="40" value="" style="edgeStyle=segmentEdgeStyle;endArrow=classic;html=1;curved=0;rounded=0;endSize=8;startSize=8;strokeColor=#000000;strokeWidth=3;fontSize=32;fontColor=#1A1A1A;exitX=0.5;exitY=1;exitDx=0;exitDy=0;exitPerimeter=0;entryX=1;entryY=0.5;entryDx=0;entryDy=0;" edge="1" parent="1" source="17" target="26">
                    <mxGeometry width="50" height="50" relative="1" as="geometry">
                        <mxPoint x="760" y="320" as="sourcePoint"/>
                        <mxPoint x="850" y="320" as="targetPoint"/>
                        <Array as="points">
                            <mxPoint x="900" y="260"/>
                            <mxPoint x="900" y="320"/>
                        </Array>
                    </mxGeometry>
                </mxCell>
            </root>
        </mxGraphModel>
    </diagram>
</mxfile>